<svg width="24" height="24" fill="none" xmlns="http://www.w3.org/2000/svg"><g clip-path="url(#a)"><g clip-path="url(#b)" fill="#000"><path d="M13.936 23.845c-.098.014-.202.033-.3.047.098-.018.197-.033.3-.047ZM14.175 23.803c-.047.01-.094.019-.145.023.051-.004.098-.014.145-.023ZM13.364 23.92a4.443 4.443 0 0 0 0 0ZM13.598 23.892c-.056.01-.112.014-.168.019.051-.005.112-.01.168-.019ZM14.503 23.738l-.126.028c.042-.01.084-.02.126-.028ZM15.314 23.536l-.103.028c.033-.01.066-.019.103-.028ZM15.066 23.602l-.113.028a.443.443 0 0 0 .113-.028ZM14.747 23.686l-.117.028a.537.537 0 0 1 .117-.028ZM13.008 23.958l-.188.014.188-.014ZM24 12c0-6.628-5.372-12-12-12S0 5.372 0 12s5.372 12 12 12c.07 0 .14 0 .21-.005v-9.337H9.634v-3.005h2.578V9.441c0-2.564 1.566-3.961 3.853-3.961 1.097 0 2.04.08 2.311.117v2.681H16.8c-1.242 0-1.486.59-1.486 1.458v1.912h2.977l-.39 3.005h-2.587v8.883C20.33 22.096 24 17.48 24 12ZM12.792 23.972ZM12.412 23.99c-.065 0-.13.005-.196.005.06 0 .126 0 .197-.004Z"/></g></g><defs><clipPath id="a"><path fill="#fff" d="M0 0h24v24H0z"/></clipPath><clipPath id="b"><path fill="#fff" d="M0 0h24v24H0z"/></clipPath></defs></svg>