<svg width="24" height="24" fill="none" xmlns="http://www.w3.org/2000/svg"><g clip-path="url(#a)"><g clip-path="url(#b)" fill="#B3B3B3"><path d="M14.297 12A2.295 2.295 0 0 1 12 14.297 2.295 2.295 0 0 1 9.703 12 2.295 2.295 0 0 1 12 9.703 2.295 2.295 0 0 1 14.297 12Z"/><path d="M17.372 7.936a2.13 2.13 0 0 0-.516-.792 2.13 2.13 0 0 0-.792-.516c-.244-.094-.61-.206-1.28-.239-.726-.033-.947-.042-2.784-.042-1.842 0-2.058.005-2.784.042-.67.033-1.036.145-1.28.24-.3.112-.572.285-.792.515-.23.22-.403.492-.516.792-.094.244-.206.61-.239 1.28-.033.726-.042.942-.042 2.784 0 1.838.01 2.058.042 2.784.033.67.14 1.036.24 1.28.112.3.285.572.515.792.22.23.492.403.792.516.244.094.61.206 1.28.239.726.033.942.042 2.784.042 1.842 0 2.058-.005 2.784-.042.67-.033 1.036-.14 1.28-.24.6-.229 1.078-.707 1.308-1.307.094-.244.206-.61.239-1.28.033-.726.042-.947.042-2.784 0-1.842-.005-2.058-.042-2.784-.033-.67-.145-1.036-.24-1.28ZM12 15.539a3.539 3.539 0 1 1 0-7.078 3.539 3.539 0 0 1 0 7.078Zm3.68-6.389a.826.826 0 0 1 0-1.65.826.826 0 0 1 0 1.65Z"/><path d="M12 0C5.372 0 0 5.372 0 12s5.372 12 12 12 12-5.372 12-12S18.628 0 12 0Zm6.848 14.84c-.032.732-.15 1.233-.318 1.674a3.514 3.514 0 0 1-2.016 2.016c-.436.168-.937.286-1.673.318-.736.033-.97.043-2.841.043-1.87 0-2.105-.01-2.84-.043-.732-.032-1.233-.15-1.674-.318a3.355 3.355 0 0 1-1.219-.797 3.355 3.355 0 0 1-.797-1.219c-.168-.436-.286-.937-.318-1.673-.033-.736-.043-.97-.043-2.841 0-1.87.01-2.105.043-2.84.032-.732.15-1.233.318-1.674.174-.46.446-.877.797-1.219.342-.351.76-.623 1.219-.797.44-.168.937-.286 1.673-.318.736-.033.97-.043 2.841-.043 1.87 0 2.105.01 2.84.043.732.032 1.233.15 1.674.318.46.174.877.446 1.219.797.351.342.623.76.797 1.219.168.44.286.937.318 1.673.033.736.043.97.043 2.841 0 1.87-.01 2.105-.043 2.84Z"/></g></g><defs><clipPath id="a"><path fill="#fff" d="M0 0h24v24H0z"/></clipPath><clipPath id="b"><path fill="#fff" d="M0 0h24v24H0z"/></clipPath></defs></svg>